<svg
        width="24"
        height="24"
        viewBox="0 0 24 24"
        xmlns="http://www.w3.org/2000/svg">
    <g id="white_person_add">
        <path d="M0 0h24v24H0z" fill="none" />
        <path d="M15 12c2.21 0 4-1.79 4-4s-1.79-4-4-4-4 1.79-4 4 1.79 4 4 4zm-9-2V7H4v3H1v2h3v3h2v-3h3v-2H6zm9 4c-2.67 0-8 1.34-8 4v2h16v-2c0-2.66-5.33-4-8-4z" />
    </g>
    <g id="white_delete">
        <path d="M6 19c0 1.1.9 2 2 2h8c1.1 0 2-.9 2-2V7H6v12zM19 4h-3.5l-1-1h-5l-1 1H5v2h14V4z" />
        <path d="M0 0h24v24H0z" fill="none" />
    </g>
    <g id="white_edit">
        <path d="M3 17.25V21h3.75L17.81 9.94l-3.75-3.75L3 17.25zM20.71 7.04c.39-.39.39-1.02 0-1.41l-2.34-2.34c-.39-.39-1.02-.39-1.41 0l-1.83 1.83 3.75 3.75 1.83-1.83z" />
        <path d="M0 0h24v24H0z" fill="none" />
    </g>
    <g id="white_save">
        <path d="M0 0h24v24H0z" fill="none" />
        <path d="M17 3H5c-1.11 0-2 .9-2 2v14c0 1.1.89 2 2 2h14c1.1 0 2-.9 2-2V7l-4-4zm-5 16c-1.66 0-3-1.34-3-3s1.34-3 3-3 3 1.34 3 3-1.34 3-3 3zm3-10H5V5h10v4z" />
    </g>
    <g id="white_back">
        <path d="M0 0h24v24H0z" fill="none" />
        <path d="M20 11H7.83l5.59-5.59L12 4l-8 8 8 8 1.41-1.41L7.83 13H20v-2z" />
    </g>
    <g id="white_classification">
        <path d="M3 18h6v-2H3v2zM3 6v2h18V6H3zm0 7h12v-2H3v2z" />
        <path d="M0 0h24v24H0z" fill="none" />
    </g>
    <g id="white_order">
        <path d="M10 18h4v-2h-4v2zM3 6v2h18V6H3zm3 7h12v-2H6v2z" />
        <path d="M0 0h24v24H0z" fill="none" />
    </g>
</svg>